HIERARCHY
ROOT Hips
{
	OFFSET 0.000000 0.000000 0.000000
	CHANNELS 6 Xposition Yposition Zposition Xrotation Yrotation Zrotation
	JOINT LeftUpLeg_virtual
	{
		OFFSET 0.000000 0.000000 0.000000
		CHANNELS 3 Xrotation Yrotation Zrotation
		JOINT LeftUpLeg
		{
			OFFSET 11.394100 -6.187798 -0.413800
			CHANNELS 3 Xrotation Yrotation Zrotation
			JOINT LeftLeg
			{
				OFFSET 0.430247 -32.302673 3.732800
				CHANNELS 3 Xrotation Yrotation Zrotation
				JOINT LeftFoot
				{
					OFFSET -0.430247 -48.264931 -6.423300
					CHANNELS 3 Xrotation Yrotation Zrotation
					JOINT LeftToeBase
					{
						OFFSET 4.230900 -16.068199 23.438400
						CHANNELS 3 Xrotation Yrotation Zrotation
						JOINT LeftToe_End
						{
							OFFSET 4.510700 0.695400 19.974600
							CHANNELS 3 Xrotation Yrotation Zrotation
							End Site
							{
								OFFSET 0 0 0
							}
						}
					}
				}
			}
		}
	}
	JOINT RightUpLeg_virtual
	{
		OFFSET 0.000000 0.000000 0.000000
		CHANNELS 3 Xrotation Yrotation Zrotation
		JOINT RightUpLeg
		{
			OFFSET -11.333700 -6.187798 -0.413800
			CHANNELS 3 Xrotation Yrotation Zrotation
			JOINT RightLeg
			{
				OFFSET -0.430392 -32.302628 3.733000
				CHANNELS 3 Xrotation Yrotation Zrotation
				JOINT RightFoot
				{
					OFFSET 0.430392 -48.264973 -6.423500
					CHANNELS 3 Xrotation Yrotation Zrotation
					JOINT RightToeBase
					{
						OFFSET -4.230900 -16.068199 23.438400
						CHANNELS 3 Xrotation Yrotation Zrotation
						JOINT RightToe_End
						{
							OFFSET -4.510700 0.695400 19.974600
							CHANNELS 3 Xrotation Yrotation Zrotation
							End Site
							{
								OFFSET 0 0 0
							}
						}
					}
				}
			}
		}
	}
	JOINT Spine_virtual
	{
		OFFSET 0.000000 0.000000 0.000000
		CHANNELS 3 Xrotation Yrotation Zrotation
		JOINT Spine
		{
			OFFSET -0.002400 12.777504 0.315300
			CHANNELS 3 Xrotation Yrotation Zrotation
			JOINT Spine1
			{
				OFFSET -0.002067 5.816869 0.032633
				CHANNELS 3 Xrotation Yrotation Zrotation
				JOINT Spine1_split
				{
					OFFSET -0.002067 5.816869 0.032633
					CHANNELS 3 Xrotation Yrotation Zrotation
					JOINT Spine2
					{
						OFFSET -0.002067 5.816869 0.032633
						CHANNELS 3 Xrotation Yrotation Zrotation
						JOINT Neck_virtual
						{
							OFFSET 0.000000 0.000000 0.000000
							CHANNELS 3 Xrotation Yrotation Zrotation
							JOINT Neck
							{
								OFFSET -0.003700 21.199493 -0.826900
								CHANNELS 3 Xrotation Yrotation Zrotation
								JOINT Head
								{
									OFFSET 0.000000 20.442200 4.834800
									CHANNELS 3 Xrotation Yrotation Zrotation
									JOINT HeadTop_End
									{
										OFFSET 0.000000 34.668396 4.968400
										CHANNELS 3 Xrotation Yrotation Zrotation
										End Site
										{
											OFFSET 0 0 0
										}
									}
								}
							}
						}
						JOINT LeftShoulder_virtual
						{
							OFFSET 0.000000 0.000000 0.000000
							CHANNELS 3 Xrotation Yrotation Zrotation
							JOINT LeftShoulder
							{
								OFFSET 3.288150 8.794197 -1.372250
								CHANNELS 3 Xrotation Yrotation Zrotation
								JOINT LeftShoulder_split
								{
									OFFSET 3.288150 8.794197 -1.372250
									CHANNELS 3 Xrotation Yrotation Zrotation
									JOINT LeftArm
									{
										OFFSET 11.953299 -2.279007 -0.146200
										CHANNELS 3 Xrotation Yrotation Zrotation
										JOINT LeftForeArm
										{
											OFFSET 18.448900 0.000000 0.000000
											CHANNELS 3 Xrotation Yrotation Zrotation
											JOINT LeftHand
											{
												OFFSET 29.527798 0.000000 0.000000
												CHANNELS 3 Xrotation Yrotation Zrotation
												End Site
												{
													OFFSET 0 0 0
												}
											}
										}
									}
								}
							}
						}
						JOINT RightShoulder_virtual
						{
							OFFSET 0.000000 0.000000 0.000000
							CHANNELS 3 Xrotation Yrotation Zrotation
							JOINT RightShoulder
							{
								OFFSET -3.249400 8.794197 -1.372250
								CHANNELS 3 Xrotation Yrotation Zrotation
								JOINT RightShoulder_split
								{
									OFFSET -3.249400 8.794197 -1.372250
									CHANNELS 3 Xrotation Yrotation Zrotation
									JOINT RightArm
									{
										OFFSET -11.953299 -2.279007 -0.146200
										CHANNELS 3 Xrotation Yrotation Zrotation
										JOINT RightForeArm
										{
											OFFSET -18.448900 0.000000 0.000000
											CHANNELS 3 Xrotation Yrotation Zrotation
											JOINT RightHand
											{
												OFFSET -29.527802 0.000000 0.000000
												CHANNELS 3 Xrotation Yrotation Zrotation
												End Site
												{
													OFFSET 0 0 0
												}
											}
										}
									}
								}
							}
						}
					}
				}
			}
		}
	}
}
MOTION
Frames: 7
Frame Time: 0.03333333
5.287795 56.554337 20.475277 0.000000 0.000000 0.000000 13.217337 16.789319 -0.136566 -104.716697 -16.434671 8.524386 83.745298 0.755626 -1.598838 16.159674 -10.145509 -14.944196 -9.105151 -0.049677 -4.770493 0.000000 0.000000 0.000000 13.295224 15.895892 -0.058534 -106.124843 14.226219 -9.803190 86.050910 1.130392 0.673597 16.557294 -5.167749 17.315733 3.294827 -0.335732 -13.132225 0.000000 0.000000 0.000000 15.498893 19.864466 -1.285607 8.498557 -4.397082 -2.492761 13.221914 -2.265915 -1.314899 0.166031 -0.305069 -0.000160 0.000000 0.000000 0.000000 12.128102 -0.726655 -1.020096 -5.002395 9.433708 3.337306 -51.114766 11.588651 4.726491 0.000000 0.000000 0.000000 10.147584 -2.410998 -2.010589 3.437765 -6.431522 13.457745 0.320258 -1.723157 0.758002 -64.164662 -39.150176 -10.767029 -176.808749 -83.557584 -179.821901 0.000000 0.000000 0.000000 12.001564 -2.267206 -1.090248 0.997541 9.988586 -8.600569 3.612311 -5.333065 13.985164 -61.748981 29.721387 27.388121 -150.439438 59.338156 144.463064 0.000000 0.000000 0.000000 
5.151979 56.334969 20.376236 0.000000 0.000000 0.000000 13.180196 16.914262 -0.183365 -105.077024 -16.569173 8.491623 83.700348 0.678385 -1.604137 16.432528 -10.307602 -14.697946 -8.595117 -0.097956 -4.630257 0.000000 0.000000 0.000000 13.329771 16.227486 -0.170145 -106.274083 14.356581 -9.718733 85.987738 0.972999 0.811741 16.526546 -5.406378 17.197055 3.229765 -0.407487 -12.746204 0.000000 0.000000 0.000000 15.264354 20.273202 -1.398531 8.408362 -4.037006 -2.886296 13.195905 -2.204405 -1.028970 0.159506 -0.348213 0.000236 0.000000 0.000000 0.000000 12.149152 -0.593824 -0.802367 -3.211775 8.885753 2.884513 -49.230375 10.816959 4.892023 0.000000 0.000000 0.000000 10.129132 -2.307084 -1.724176 3.390514 -5.609198 13.872098 0.473341 -1.888703 1.447737 -64.103306 -38.243479 -12.318487 -177.374590 -83.982818 179.950172 0.000000 0.000000 0.000000 12.030536 -2.176157 -0.828918 1.240003 9.260004 -9.047752 3.686900 -4.823917 13.792858 -61.911881 29.155130 26.610552 -149.831715 59.154137 143.960908 0.000000 0.000000 0.000000 
4.987871 56.085960 20.237061 0.000000 0.000000 0.000000 13.062050 17.014754 -0.140835 -105.384416 -16.583742 8.555856 83.619800 0.643855 -1.645392 16.696969 -10.455685 -14.394904 -8.197345 -0.168545 -4.427471 0.000000 0.000000 0.000000 13.283877 16.541340 -0.180033 -106.523159 14.562674 -9.668862 86.163868 0.819004 0.977369 16.426236 -5.658354 17.066252 3.306835 -0.499826 -12.461399 0.000000 0.000000 0.000000 14.931138 20.686372 -1.451058 8.429904 -3.662327 -3.239895 13.322220 -2.062641 -0.821048 0.130983 -0.357193 0.018562 0.000000 0.000000 0.000000 12.192465 -0.403828 -0.655437 -1.075112 7.931462 2.464956 -46.943634 8.901292 4.714597 0.000000 0.000000 0.000000 10.279424 -2.156211 -1.560784 3.442441 -5.067864 14.373559 0.686550 -2.501478 2.142565 -62.382037 -36.685363 -13.988580 179.885627 -83.611255 177.661908 0.000000 0.000000 0.000000 12.232129 -1.974213 -0.595526 1.491128 8.905893 -8.981273 4.170958 -3.575183 13.689523 -60.411930 28.493500 25.349762 -148.902550 59.115963 143.114156 0.000000 0.000000 0.000000 
4.844121 55.843704 20.123928 0.000000 0.000000 0.000000 12.934943 17.041911 -0.047601 -105.612920 -16.512582 8.688963 83.554162 0.640330 -1.714781 16.924493 -10.579668 -14.087344 -8.099667 -0.252473 -4.177756 0.000000 0.000000 0.000000 13.198694 16.796354 -0.122100 -106.872974 14.815882 -9.628419 86.565954 0.716585 1.128506 16.380383 -5.807119 17.037014 3.344343 -0.572854 -12.350861 0.000000 0.000000 0.000000 14.599517 20.962650 -1.438641 8.524622 -3.336992 -3.444445 13.509545 -1.861615 -0.716667 0.113582 -0.320971 0.048009 0.000000 0.000000 0.000000 12.179164 -0.185681 -0.599957 1.205785 6.797100 2.136693 -44.782767 6.292164 4.246259 0.000000 0.000000 0.000000 10.494887 -1.992200 -1.556385 3.570311 -4.837537 14.729373 0.984515 -3.745576 2.786053 -59.133893 -35.002329 -15.393211 175.773716 -82.528588 174.030502 0.000000 0.000000 0.000000 12.489680 -1.693503 -0.413254 1.744781 8.921305 -8.579861 4.663371 -2.092496 13.586911 -57.665211 27.726560 23.731868 -147.851698 59.193254 142.124188 0.000000 0.000000 0.000000 
4.745369 55.641098 20.065321 0.000000 0.000000 0.000000 12.876686 17.012174 0.041380 -105.754401 -16.406611 8.848541 83.547666 0.663157 -1.786165 17.043108 -10.634016 -13.814106 -8.217745 -0.340532 -3.963560 0.000000 0.000000 0.000000 13.163766 16.960601 -0.051726 -107.286542 15.085248 -9.568209 87.072583 0.698171 1.226877 16.439511 -5.785635 17.152859 3.297540 -0.612428 -12.418521 0.000000 0.000000 0.000000 14.383583 21.029965 -1.392145 8.639584 -3.118471 -3.448372 13.643953 -1.664763 -0.717858 0.135417 -0.281539 0.075712 0.000000 0.000000 0.000000 12.073124 0.027760 -0.614414 3.310343 5.724201 1.940888 -43.195206 3.580858 3.519242 0.000000 0.000000 0.000000 10.672796 -1.859238 -1.662710 3.754266 -5.076835 14.891711 1.371570 -4.966164 3.377352 -55.512188 -33.581800 -16.306971 171.626016 -81.123161 170.341257 0.000000 0.000000 0.000000 12.666797 -1.394206 -0.304661 1.980484 9.239157 -8.135118 4.941511 -0.934735 13.478142 -54.722174 26.841050 22.079886 -147.065338 59.208069 141.320794 0.000000 0.000000 0.000000 
4.719461 55.486198 20.074398 0.000000 0.000000 0.000000 12.904484 16.937669 0.083278 -105.835024 -16.297407 9.026659 83.640823 0.699307 -1.852605 17.006522 -10.604965 -13.633389 -8.335919 -0.412802 -3.876395 0.000000 0.000000 0.000000 13.206917 16.977012 -0.021428 -107.695404 15.331792 -9.455075 87.559036 0.740005 1.267087 16.499191 -5.623190 17.326773 3.271782 -0.631111 -12.588846 0.000000 0.000000 0.000000 14.339108 20.889232 -1.362369 8.707779 -3.046058 -3.283323 13.609776 -1.513077 -0.787102 0.136917 -0.267421 0.094611 0.000000 0.000000 0.000000 11.826719 0.185681 -0.657915 5.041327 4.896886 1.884024 -42.425293 1.401660 2.592120 0.000000 0.000000 0.000000 10.708440 -1.779545 -1.792063 3.958375 -5.649044 14.847098 1.834702 -5.342161 3.863000 -52.886565 -32.637827 -16.525887 168.298375 -79.759671 167.491238 0.000000 0.000000 0.000000 12.633802 -1.141286 -0.252449 2.173421 9.619364 -7.887572 4.828795 -0.144694 13.147119 -52.899972 25.821387 20.874040 -146.996299 58.952462 141.183849 0.000000 0.000000 0.000000 
4.775713 55.382820 20.159937 0.000000 0.000000 0.000000 13.020243 16.807670 0.052790 -105.871928 -16.195593 9.225087 83.804877 0.713351 -1.905971 16.830942 -10.516001 -13.609567 -8.420412 -0.460308 -3.879625 0.000000 0.000000 0.000000 13.308484 16.871983 -0.063262 -108.026634 15.523613 -9.297488 87.943200 0.778118 1.283913 16.540717 -5.410542 17.423367 3.318449 -0.644092 -12.769157 0.000000 0.000000 0.000000 14.428177 20.551092 -1.352989 8.656484 -3.116182 -3.025120 13.321039 -1.444672 -0.859566 0.152190 -0.265832 0.119703 0.000000 0.000000 0.000000 11.429913 0.269839 -0.684394 6.266936 4.449745 1.952665 -42.449885 0.197898 1.602564 0.000000 0.000000 0.000000 10.528402 -1.754047 -1.850945 4.160535 -6.428189 14.672081 1.797468 -4.734148 3.922100 -51.886802 -32.222708 -15.746771 166.034700 -78.750223 165.721208 0.000000 0.000000 0.000000 12.296669 -0.994784 -0.222326 2.288380 9.890361 -7.938454 4.134303 0.134201 12.799445 -52.732110 24.930064 20.502749 -147.750133 58.413014 141.904871 0.000000 0.000000 0.000000 
